<svg xmlns="http://www.w3.org/2000/svg" width="13" height="13" viewBox="0 0 13 13">
    <g fill="none" fill-rule="evenodd" opacity=".9">
        <g>
            <g>
                <g>
                    <g>
                        <g>
                            <g>
                                <g stroke="#CDCDCD" transform="translate(-863 -862) translate(360 371) translate(0 220) translate(467 20.5) translate(0 235) translate(24.5) translate(0 .3)">
                                    <rect width="423" height="136" x=".5" y=".5" rx="5"/>
                                </g>
                                <g fill="#9B9B9B" fill-rule="nonzero">
                                    <g>
                                        <path d="M10.243 1.757C9.109.624 7.603 0 6 0 4.397 0 2.89.624 1.757 1.757.624 2.891 0 4.397 0 6c0 1.603.624 3.11 1.757 4.243C2.891 11.376 4.397 12 6 12c1.603 0 3.11-.624 4.243-1.757C11.376 9.109 12 7.603 12 6c0-1.603-.624-3.11-1.757-4.243zM6 1.342c2.362 0 4.319 1.768 4.618 4.05L7.731 5.11C7.407 4.483 6.753 4.053 6 4.053c-.753 0-1.407.43-1.73 1.057l-2.888.281C1.68 3.11 3.638 1.342 6 1.342zM1.38 6.595l2.853.222c.18.388.485.707.862.906l.187 2.88c-2.036-.317-3.64-1.956-3.902-4.008zm4.62.01c-.334 0-.605-.271-.605-.605 0-.334.271-.605.605-.605.334 0 .605.271.605.605 0 .334-.271.605-.605.605zm.718 3.997l.187-2.879c.377-.199.682-.518.862-.906l2.853-.222c-.263 2.052-1.866 3.691-3.902 4.007z" transform="translate(-863 -862) translate(360 371) translate(0 220) translate(467 20.5) translate(0 235) translate(24.5) rotate(-90 20 8)"/>
                                    </g>
                                </g>
                            </g>
                        </g>
                    </g>
                </g>
            </g>
        </g>
    </g>
</svg>
